{"title":"Fist.of.Legend.1994.BRRIP.720P.H264-ZEKTORM","uid":7283851,"size":3402489148,"categoryP":"video","categoryS":"hd___movies","magnet":"?xt=urn:btih:0cafd9fa862c68236cc9c941a6f315123edbb5de&amp;dn=Fist.of.Legend.1994.BRRIP.720P.H264-ZEKTORM&amp;tr=udp%3A%2F%2Ftracker.openbittorrent.com%3A80&amp;tr=udp%3A%2F%2Fopen.demonii.com%3A1337&amp;tr=udp%3A%2F%2Ftracker.coppersurfer.tk%3A6969&amp;tr=udp%3A%2F%2Fexodus.desync.com%3A6969","seeders":4,"leechers":4,"uploader":"blowley","files":4,"time":1337519335,"description":"Title                            : Jing wu ying xiong\nAlso Known As                    : Fist of Legend\nYear                             : 1994\nGenre                            : Action | Drama\niMDB URL                         : http://www.imdb.com/title/tt0110200/\n\nComplete name                    : Fist.of.Legend.1994.BRRIP.720P.H264-ZEKTORM.mp4\nFormat                           : MPEG-4\nFormat profile                   : Base Media\nCodec ID                         : isom\nFile size                        : 3.17 GiB\nDuration                         : 1h 43mn\nOverall bit rate                 : 4396 Kbps\nSubtitles                        : English (Format: srt)\n\nVideo\nID                               : 1\nFormat                           : AVC\nFormat/Info                      : Advanced Video Codec\nFormat profile                   : &lt;a class=&quot;__cf_email__&quot; href=&quot;/cdn-cgi/l/email-protection&quot; data-cfemail=&quot;753d1c121d3539415b45&quot;&gt;[email&amp;#160;protected]&lt;/a&gt;&lt;script cf-hash='f9e31' type=&quot;text/javascript&quot;&gt;\n/* &lt;![CDATA[ */!function(){try{var t=&quot;currentScript&quot;in document?document.currentScript:function(){for(var t=document.getElementsByTagName(&quot;script&quot;),e=t.length;e--;)if(t[e].getAttribute(&quot;cf-hash&quot;))return t[e]}();if(t&amp;&amp;t.previousSibling){var e,r,n,i,c=t.previousSibling,a=c.getAttribute(&quot;data-cfemail&quot;);if(a){for(e=&quot;&quot;,r=parseInt(a.substr(0,2),16),n=2;a.length-n;n+=2)i=parseInt(a.substr(n,2),16)^r,e+=String.fromCharCode(i);e=document.createTextNode(e),c.parentNode.replaceChild(e,c)}}}catch(u){}}();/* ]]&gt; */&lt;/script&gt;\nFormat settings, CABAC           : Yes\nFormat settings, ReFrames        : 9 frames\nCodec ID                         : avc1\nCodec ID/Info                    : Advanced Video Coding\nDuration                         : 1h 43mn\nBit rate mode                    : Variable\nBit rate                         : 4328 Kbps\nWidth                            : 1280 pixels\nHeight                           : 720 pixels\nDisplay aspect ratio             : 16/9\nFrame rate mode                  : Constant\nFrame rate                       : 24.000 fps\nResolution                       : 24 bits\nColorimetry                      : 4:2:0\nScan type                        : Progressive\nBits/(Pixel*Frame)               : 0.196\nStream size                      : 3.12 GiB (98%)\nTitle                            : Video\nWriting library                  : x264\n\nAudio\nID                               : 2\nFormat                           : AAC\nFormat/Info                      : Advanced Audio Codec\nFormat version                   : Version 4\nFormat profile                   : LC\nFormat settings, SBR             : Yes\nFormat settings, PS              : No\nCodec ID                         : 40\nDuration                         : 1h 43mn\nBit rate mode                    : Variable\nBit rate                         : 66.15 Kbps\nMaximum bit rate                 : 90.0 Kbps\nChannel(s)                       : 2 channels\nChannel positions                : L R\nSampling rate                    : 48.0 KHz\nResolution                       : 16 bits\nStream size                      : 48.6 MiB (1%)\nLanguage                         : Chinese\n\n\nScreenshots:\n\n[img]http://img27.imageshack.us/img27/6949/snapfol1.png[/img]\n\n[img]http://img838.imageshack.us/img838/6489/snapfol2.png[/img]\n","torrent":{"xt":"urn:btih:0cafd9fa862c68236cc9c941a6f315123edbb5de","amp;dn":"Fist.of.Legend.1994.BRRIP.720P.H264-ZEKTORM","amp;tr":["udp%3A%2F%2Ftracker.openbittorrent.com%3A80","udp%3A%2F%2Fopen.demonii.com%3A1337","udp%3A%2F%2Ftracker.coppersurfer.tk%3A6969","udp%3A%2F%2Fexodus.desync.com%3A6969"],"infoHash":"0cafd9fa862c68236cc9c941a6f315123edbb5de","infoHashBuffer":{"type":"Buffer","data":[12,175,217,250,134,44,104,35,108,201,201,65,166,243,21,18,62,219,181,222]},"announce":[],"urlList":[]}}